#!OML:ASF X:\für Bonn\!DataBase\2005_08_10_Bjorn_Final\c3d\bjorn.ASF
:FULLY-SPECIFIED
:DEGREES
202
root -9.62747 17.796 5.36822 -192.578 -230.737 -199.943
lowerback 0.413966 -3.15239 9.42643
upperback 7.84031 -4.64714 3.39109
thorax 7.62182 -1.73018 -1.91177
lowerneck -6.12029 7.03082 4.97759
upperneck 5.10449 9.5222 -7.78161
head 3.47183 4.5707 -2.97508
rclavicle 5.20816e-014 -4.65156e-014
rhumerus -47.5671 7.51596 -91.2465
rradius 74.693
rwrist -4.8676
rhand -24.0899 21.1798
rfingers 7.12502
rthumb 2.39057 -8.78657
lclavicle 5.20816e-014 -4.65156e-014
lhumerus -36.4379 -29.3979 102.145
lradius 82.884
lwrist -5.84687
lhand -40.418 -26.465
lfingers 7.12502
lthumb -13.3707 3.08592
rfemur -27.4993 -4.25202 19.3955
rtibia 47.5241
rfoot -19.8248 15.4788
rtoes -37.9043
lfemur -1.51886 -1.64144 -12.5681
ltibia 71.967
lfoot -7.67382 4.50913
ltoes -5.74584
203
root -9.45725 17.6953 5.5419 -193.51 -230.906 -200.504
lowerback 1.14773 -2.94228 9.79274
upperback 8.00955 -4.28508 3.52972
thorax 7.41036 -1.53238 -1.91133
lowerneck -6.4737 6.93856 5.04059
upperneck 5.18114 9.4092 -8.18038
head 3.22649 4.47644 -2.80095
rclavicle 1.30204e-014 -2.42517e-014
rhumerus -45.4576 7.98212 -91.4692
rradius 73.261
rwrist -5.77751
rhand -24.1102 20.6049
rfingers 7.12502
rthumb 2.37094 -9.36169
lclavicle 1.30204e-014 -2.42517e-014
lhumerus -36.8771 -28.4585 102.541
lradius 81.9249
lwrist -5.97071
lhand -40.1064 -26.5407
lfingers 7.12502
lthumb -13.0703 3.02977
rfemur -26.6942 -4.45082 19.6475
rtibia 48.7406
rfoot -20.9683 16.0512
rtoes -36.6837
lfemur -3.3162 -0.87054 -11.9438
ltibia 74.7257
lfoot -8.51721 4.4476
ltoes -5.26372
204
root -9.28473 17.6001 5.71027 -194.379 -231.085 -200.981
lowerback 1.90037 -2.71758 10.1632
upperback 8.14203 -3.88964 3.61708
thorax 7.1512 -1.31914 -1.97135
lowerneck -6.68127 6.83603 5.24113
upperneck 5.02936 9.2543 -8.40978
head 3.22523 4.39343 -2.90625
rclavicle 8.00108e-014 -5.725e-014
rhumerus -43.3909 8.27023 -91.6905
rradius 72.044
rwrist -6.50766
rhand -23.8433 19.6756
rfingers 7.12502
rthumb 2.62872 -10.2879
lclavicle 8.00108e-014 -5.725e-014
lhumerus -37.4333 -27.5114 102.901
lradius 81.0779
lwrist -6.17128
lhand -39.9685 -26.2504
lfingers 7.12502
lthumb -12.9374 3.32856
rfemur -25.8038 -4.77523 19.8323
rtibia 49.8006
rfoot -22.1106 16.6821
rtoes -35.7794
lfemur -5.17996 -0.135342 -11.4753
ltibia 77.3486
lfoot -9.5644 4.71496
ltoes -4.82899
205
root -9.10732 17.5158 5.87795 -195.164 -231.308 -201.369
lowerback 2.63348 -2.4755 10.4838
upperback 8.24002 -3.46361 3.6721
thorax 6.87365 -1.09498 -2.0457
lowerneck -6.86924 6.7019 5.48455
upperneck 4.97288 9.06168 -8.67152
head 3.24961 4.28999 -3.03019
rclavicle -3.75703e-014 5.10877e-014
rhumerus -41.4781 8.22746 -91.8823
rradius 71.0205
rwrist -7.09733
rhand -23.5756 19.1235
rfingers 7.12502
rthumb 2.88725 -10.8367
lclavicle -3.75703e-014 5.10877e-014
lhumerus -38.0548 -26.5998 103.251
lradius 80.3523
lwrist -6.43405
lhand -39.7992 -25.2581
lfingers 7.12502
lthumb -12.7742 4.33115
rfemur -24.7961 -5.19018 19.9346
rtibia 50.6609
rfoot -23.3348 17.2161
rtoes -35.5677
lfemur -7.08713 0.535303 -11.1757
ltibia 79.7674
lfoot -10.8545 5.20716
ltoes -4.37181
206
root -8.92097 17.4505 6.04552 -195.71 -231.762 -201.525
lowerback 3.21794 -2.2398 10.6736
upperback 8.30899 -3.05861 3.62752
thorax 6.65008 -0.885372 -2.16723
lowerneck -6.96924 6.53964 5.78258
upperneck 4.88528 8.82286 -8.89456
head 3.24634 4.16861 -3.1581
rclavicle -5.68524e-014 3.37934e-014
rhumerus -39.7915 7.90248 -92.0896
rradius 70.1347
rwrist -7.35612
rhand -23.3122 19.0562
rfingers 7.12502
rthumb 3.14164 -10.9005
lclavicle -5.68524e-014 3.37934e-014
lhumerus -38.8787 -25.8844 103.507
lradius 79.9543
lwrist -6.72015
lhand -39.7095 -23.9734
lfingers 7.12502
lthumb -12.6877 5.62114
rfemur -23.6652 -5.78688 19.7996
rtibia 51.2623
rfoot -24.5977 17.5547
rtoes -35.7872
lfemur -9.09422 0.983246 -11.2637
ltibia 81.8956
lfoot -12.255 5.99262
ltoes -3.83418
207
root -8.72838 17.4083 6.2139 -195.913 -232.22 -201.648
lowerback 3.4192 -1.93173 10.8467
upperback 8.29724 -2.61045 3.54759
thorax 6.5665 -0.652305 -2.33392
lowerneck -6.90897 6.33567 6.08438
upperneck 4.69947 8.52142 -9.05128
head 3.17834 4.02422 -3.27741
rclavicle -1.2265e-013 3.18055e-014
rhumerus -38.262 7.56561 -92.3379
rradius 69.4017
rwrist -7.65609
rhand -22.8287 19.2891
rfingers 7.12502
rthumb 3.60854 -10.6601
lclavicle -1.2265e-013 3.18055e-014
lhumerus -39.8315 -25.3039 103.688
lradius 79.8154
lwrist -6.93281
lhand -39.7317 -22.8601
lfingers 7.12502
lthumb -12.7091 6.73318
rfemur -22.7157 -6.29876 19.6736
rtibia 51.5768
rfoot -25.6989 17.7476
rtoes -35.8592
lfemur -11.4942 1.51201 -11.4685
ltibia 83.7235
lfoot -13.5502 6.91472
ltoes -3.81375
208
root -8.53249 17.3839 6.38115 -195.976 -232.702 -201.897
lowerback 3.35092 -1.61165 11.0745
upperback 8.20325 -2.18368 3.45152
thorax 6.54856 -0.42732 -2.55629
lowerneck -6.7279 6.13113 6.44582
upperneck 4.48506 8.21505 -9.1793
head 3.08133 3.8825 -3.40155
rclavicle -1.29309e-013 6.34123e-014
rhumerus -36.9021 7.33406 -92.6859
rradius 68.9057
rwrist -7.89244
rhand -22.2529 19.9523
rfingers 7.12502
rthumb 4.16455 -9.98676
lclavicle -1.29309e-013 6.34123e-014
lhumerus -40.8156 -24.7161 103.779
lradius 79.6594
lwrist -7.15849
lhand -39.9581 -22.1492
lfingers 7.12502
lthumb -12.9274 7.43036
rfemur -21.8459 -6.67289 19.642
rtibia 51.6067
rfoot -26.6844 17.7892
rtoes -35.8894
lfemur -14.2045 2.12246 -11.6627
ltibia 85.2374
lfoot -14.6151 7.64681
ltoes -4.32043
209
root -8.33097 17.3714 6.54727 -196.063 -233.204 -202.071
lowerback 3.35301 -1.29688 11.248
upperback 8.11188 -1.75185 3.30785
thorax 6.49741 -0.203635 -2.79722
lowerneck -6.50892 5.92326 6.77765
upperneck 4.31699 7.90542 -9.20283
head 2.98456 3.74179 -3.48955
rclavicle 2.60408e-014 -5.96354e-015
rhumerus -35.7187 7.23165 -93.1444
rradius 68.5483
rwrist -7.60454
rhand -21.9695 21.0358
rfingers 7.12502
rthumb 4.4382 -8.89773
lclavicle 2.60408e-014 -5.96354e-015
lhumerus -41.9079 -24.1893 103.79
lradius 79.5573
lwrist -7.33432
lhand -40.2387 -21.5613
lfingers 7.12502
lthumb -13.1978 8.00093
rfemur -20.7218 -6.91993 19.5408
rtibia 51.3629
rfoot -27.6187 17.6724
rtoes -35.9578
lfemur -16.7318 2.76467 -11.9858
ltibia 86.3635
lfoot -15.6141 8.173
ltoes -5.31907
210
root -8.1251 17.3699 6.71168 -196.148 -233.712 -202.201
lowerback 3.37484 -0.967068 11.3426
upperback 8.02657 -1.29781 3.18272
thorax 6.44965 0.0256762 -2.97449
lowerneck -6.46301 5.71752 6.92087
upperneck 4.37461 7.60799 -9.02245
head 2.96798 3.60277 -3.47697
rclavicle 4.07509e-014 5.56597e-015
rhumerus -34.6127 7.22745 -93.5537
rradius 68.319
rwrist -6.8719
rhand -21.5752 22.0583
rfingers 7.12502
rthumb 4.819 -7.86685
lclavicle 4.07509e-014 5.56597e-015
lhumerus -43.083 -23.7021 103.827
lradius 79.5457
lwrist -7.40014
lhand -40.5317 -21.0308
lfingers 7.12502
lthumb -13.4803 8.51295
rfemur -19.425 -7.03519 19.4242
rtibia 50.8656
rfoot -28.4781 17.3176
rtoes -36.1505
lfemur -19.1296 3.44582 -12.4147
ltibia 87.1217
lfoot -16.5425 8.53118
ltoes -6.47873
211
root -7.91508 17.3795 6.8753 -196.266 -234.233 -202.272
lowerback 3.44184 -0.647432 11.3385
upperback 7.97841 -0.852835 3.07482
thorax 6.41788 0.246343 -3.07862
lowerneck -6.53363 5.53905 6.90974
upperneck 4.56541 7.35273 -8.69818
head 3.00251 3.48247 -3.38869
rclavicle 2.8625e-014 3.06128e-014
rhumerus -33.4453 7.24512 -93.902
rradius 68.1504
rwrist -6.03561
rhand -20.8654 22.9494
rfingers 7.12502
rthumb 5.50427 -6.95913
lclavicle 2.8625e-014 3.06128e-014
lhumerus -44.2412 -23.267 103.835
lradius 79.5843
lwrist -7.31146
lhand -40.6881 -20.7673
lfingers 7.12502
lthumb -13.631 8.76643
rfemur -17.8945 -7.09483 19.2876
rtibia 50.1238
rfoot -29.3395 16.7256
rtoes -36.7074
lfemur -21.4076 3.97382 -12.9378
ltibia 87.5106
lfoot -17.3866 8.56205
ltoes -6.79053
